<svg width="228" height="73" viewBox="0 0 228 73" fill="none" xmlns="http://www.w3.org/2000/svg">
<path d="M29.958 29.1689H25.512V34.6949H24.324V36.4049H25.512V41.9849H29.958C31.956 41.9849 33.54 41.3909 34.692 40.2209C35.826 39.0509 36.402 37.5029 36.402 35.5769C36.402 33.6509 35.826 32.1029 34.692 30.9329C33.54 29.7629 31.956 29.1689 29.958 29.1689ZM29.958 40.1669H27.546V36.4049H29.598V34.6949H27.546V30.9689H29.958C32.64 30.9689 34.278 32.6969 34.278 35.5229C34.278 38.3849 32.622 40.1669 29.958 40.1669ZM42.6532 28.0169C44.0032 28.0169 44.9392 27.1349 44.9212 25.7129H43.6792C43.6972 26.3789 43.3012 26.7929 42.6532 26.7929C41.9512 26.7929 41.6092 26.3789 41.6272 25.7129H40.3672C40.3492 27.1349 41.2852 28.0169 42.6532 28.0169ZM46.3792 41.9849H48.5752L43.6792 29.1689H41.6272L36.7132 41.9849H38.7832L39.8812 39.0509H45.2812L46.3792 41.9849ZM40.5112 37.4129L42.5992 31.8509L44.6692 37.4129H40.5112ZM50.046 41.9849H52.044V32.5349L58.254 41.9849H60.324V29.1689H58.326V38.7269L52.134 29.1689H50.046V41.9849ZM68.4392 34.8209V36.5309H72.5432V36.9269L72.4352 36.8909C72.3812 38.0249 71.9672 38.8709 71.1752 39.4469C70.3832 40.0229 69.5012 40.3109 68.5472 40.3109C67.3052 40.3109 66.3152 39.8789 65.5772 39.0329C64.8392 38.1869 64.4612 37.0349 64.4612 35.5949C64.4612 34.1549 64.8392 33.0029 65.5952 32.1389C66.3512 31.2749 67.3592 30.8429 68.6012 30.8429C70.4012 30.8429 71.5892 31.6349 72.1652 33.2009H74.4152C73.7852 30.6089 71.6432 28.9889 68.6192 28.9889C66.7472 28.9889 65.2352 29.6189 64.0832 30.8609C62.9312 32.1209 62.3552 33.7409 62.3552 35.7389C62.3552 37.6649 62.9132 39.2129 64.0292 40.3829C65.1452 41.5529 66.5852 42.1469 68.3492 42.1469C70.2212 42.1469 71.6252 41.4989 72.5792 40.2029L72.7952 42.0029H74.4692V34.8209H68.4392ZM80.298 41.9849H82.314V38.4209L84.294 36.2429L88.29 41.9849H90.846L85.788 34.6769L90.702 29.1689H88.308L82.314 35.9549V29.1689H80.298V41.9849ZM95.9654 27.9629H97.4054L99.0254 25.6769H97.3154L95.9654 27.9629ZM95.5874 37.5209V41.9849H97.6034V37.5209L102.463 29.1689H100.051L96.6314 35.3789L93.2834 29.1689H90.8354L95.5874 37.5209ZM107.351 41.9849H109.349V32.5349L115.559 41.9849H117.629V29.1689H115.631V38.7269L109.439 29.1689H107.351V41.9849ZM125.744 34.8209V36.5309H129.848V36.9269L129.74 36.8909C129.686 38.0249 129.272 38.8709 128.48 39.4469C127.688 40.0229 126.806 40.3109 125.852 40.3109C124.61 40.3109 123.62 39.8789 122.882 39.0329C122.144 38.1869 121.766 37.0349 121.766 35.5949C121.766 34.1549 122.144 33.0029 122.9 32.1389C123.656 31.2749 124.664 30.8429 125.906 30.8429C127.706 30.8429 128.894 31.6349 129.47 33.2009H131.72C131.09 30.6089 128.948 28.9889 125.924 28.9889C124.052 28.9889 122.54 29.6189 121.388 30.8609C120.236 32.1209 119.66 33.7409 119.66 35.7389C119.66 37.6649 120.218 39.2129 121.334 40.3829C122.45 41.5529 123.89 42.1469 125.654 42.1469C127.526 42.1469 128.93 41.4989 129.884 40.2029L130.1 42.0029H131.774V34.8209H125.744ZM142.707 41.9849H144.903L140.007 29.1689H137.955L133.041 41.9849H135.111L136.209 39.0509H141.609L142.707 41.9849ZM136.839 37.4129L138.927 31.8509L140.997 37.4129H136.839ZM148.357 37.5209V41.9849H150.373V37.5209L155.233 29.1689H152.821L149.401 35.3789L146.053 29.1689H143.605L148.357 37.5209Z" fill="white"/>
<path d="M186.43 30.9148L192.5 36.9848L186.43 43.0548" stroke="#141414" stroke-width="1.5" stroke-miterlimit="10" stroke-linecap="round" stroke-linejoin="round"/>
<path d="M175.5 36.9849H192.33" stroke="#141414" stroke-width="1.5" stroke-miterlimit="10" stroke-linecap="round" stroke-linejoin="round"/>
<rect x="0.5" y="1.48486" width="227" height="71" rx="35.5" stroke="white"/>
</svg>
