<svg width="28" height="28" viewBox="0 0 28 28" fill="none" xmlns="http://www.w3.org/2000/svg">
<g clip-path="url(#clip0_478_6806)">
<path d="M20.4169 1.07001C19.1032 1.09044 17.8181 1.45717 16.6915 2.13316C15.5649 2.80914 14.6365 3.77045 14.0003 4.92001C13.364 3.77045 12.4357 2.80914 11.3091 2.13316C10.1824 1.45717 8.89733 1.09044 7.58361 1.07001C5.48937 1.161 3.51627 2.07714 2.09536 3.61828C0.674446 5.15942 -0.0787654 7.20029 0.00027686 9.29501C0.00027686 17.1992 12.7823 26.3283 13.3259 26.7157L14.0003 27.1928L14.6746 26.7157C15.2183 26.3307 28.0003 17.1992 28.0003 9.29501C28.0793 7.20029 27.3261 5.15942 25.9052 3.61828C24.4843 2.07714 22.5112 1.161 20.4169 1.07001ZM14.0003 24.3205C10.2051 21.4855 2.33361 14.5205 2.33361 9.29501C2.25386 7.81884 2.76104 6.37103 3.74453 5.26732C4.72803 4.16362 6.10805 3.49358 7.58361 3.40334C9.05917 3.49358 10.4392 4.16362 11.4227 5.26732C12.1452 6.07818 12.6107 7.07476 12.7752 8.13187C12.8727 8.75822 13.3664 9.29501 14.0003 9.29501V9.29501C14.6342 9.29501 15.1279 8.75822 15.2254 8.13187C15.3899 7.07476 15.8553 6.07818 16.5779 5.26732C17.5614 4.16362 18.9414 3.49358 20.4169 3.40334C21.8925 3.49358 23.2725 4.16362 24.256 5.26732C25.2395 6.37103 25.7467 7.81884 25.6669 9.29501C25.6669 14.5228 17.7954 21.4855 14.0003 24.3205Z" fill="#141414"/>
</g>
<defs>
<clipPath id="clip0_478_6806">
<rect width="28" height="28" fill="white"/>
</clipPath>
</defs>
</svg>
